# xmcd
#
# Track frame offsets:
#	150
#	25623
#	42002
#	54400
#	70391
#	84304
#	99049
#	112475
#	126797
#	143317
#	157218
#	176063
#	198471
#	209729
#	227788
#	244603
#	260561
#	274401
#	301719
#	315829
#	330903
#	350848
#
# Disc length: 4751 seconds
#
# Revision: 0
# Processed by: cddbd v1.5.2PL0 Copyright (c) Steve Scherf et al.
# Submitted via: EZCDAudioConverter 1.2.3.1
#
DISCID=37128d16
DTITLE=Mayck e Lyan - Acústico - Gravado ao vivo no Villa Country São Paulo(SP
DTITLE=)
DYEAR=1900
DGENRE=Sertanejo
TTITLE0=No Som Da Viola - Sangue Novo
TTITLE1=Pede Pra Voltar
TTITLE2=Diz Que Tá Arrependida
TTITLE3=Não Me Leve a Mal
TTITLE4=Noite Encantada
TTITLE5=Dor de Dente e Mulher Feia
TTITLE6=Sem Você Fico sem Mim
TTITLE7=Cara de Santa
TTITLE8=Sina de Violeiro
TTITLE9=No Pontei da Viola
TTITLE10=Pot-Pourri Tião Carreiro: Pagode na Praça - Rei sem Coroa - Pagode em
TTITLE10=Brasília
TTITLE11=Pot-Pourri Instrumental: Rio de Lágrimas(Rio de Piracicaba) - Acorda,
TTITLE11=Maria Bonita - Brasileirinho
TTITLE12=Opostos se Atraem
TTITLE13=Se Tudo Acabou
TTITLE14=Fala que o Seu Amor Sou Eu
TTITLE15=O Encanto(Cristal Quebrado)
TTITLE16=Ave Maria(Instrumental)
TTITLE17=Proposta - Amargurado
TTITLE18=Se Rolar a Gente Fica
TTITLE19=Vacilou, Virou Ex
TTITLE20=O Trem das 7
TTITLE21=Extras - Making of - Depoimentos - As Músicas
EXTD=
EXTT0=
EXTT1=
EXTT2=
EXTT3=
EXTT4=
EXTT5=
EXTT6=
EXTT7=
EXTT8=
EXTT9=
EXTT10=
EXTT11=
EXTT12=
EXTT13=
EXTT14=
EXTT15=
EXTT16=
EXTT17=
EXTT18=
EXTT19=
EXTT20=
EXTT21=
PLAYORDER=
